<?xml version="1.0" ?><svg height="512" preserveAspectRatio="xMidYMid" viewBox="0 0 512 512" width="512" xmlns="http://www.w3.org/2000/svg" xmlns:xlink="http://www.w3.org/1999/xlink"><defs><style>
      .cls-1 {
        fill: #fff;
      }

      .cls-2 {
        fill: #e3b71e;
      }

      .cls-2, .cls-3 {
        fill-rule: evenodd;
      }

      .cls-3 {
        fill: #000;
        opacity: 0.1;
      }
    </style></defs><circle class="cls-1" cx="256" cy="256" r="256"/><path class="cls-2" d="M256.000,512.000 C114.615,512.000 0.000,397.385 0.000,256.000 C0.000,114.615 114.615,0.000 256.000,0.000 C397.385,0.000 512.000,114.615 512.000,256.000 C512.000,397.385 397.385,512.000 256.000,512.000 ZM96.914,176.994 L57.988,176.994 L57.988,344.766 L96.914,344.766 L96.914,176.994 ZM246.781,176.994 L190.338,176.994 L179.934,251.726 L166.982,176.994 L112.485,176.994 L112.485,346.717 L147.495,347.414 L147.519,245.273 L166.982,344.766 L192.284,344.766 L209.801,245.273 L211.747,346.717 L246.781,346.717 L246.781,176.994 ZM330.473,176.994 C297.328,176.994 258.459,176.994 258.459,176.994 L258.459,344.766 C258.459,344.766 299.974,344.766 334.366,344.766 C341.269,344.766 357.139,338.782 357.243,323.035 C357.315,312.221 357.500,221.434 357.682,205.228 C357.682,193.030 341.776,176.994 330.473,176.994 ZM461.455,216.117 C443.609,190.298 410.273,216.011 410.273,216.011 L410.273,176.994 L371.346,176.994 L371.346,346.717 C371.346,346.717 401.659,347.273 404.433,346.717 C407.208,346.161 414.165,336.963 414.165,336.963 C414.165,336.963 434.900,360.662 458.174,338.582 C460.355,336.512 464.215,332.492 464.769,327.209 C465.324,321.925 464.769,229.380 464.769,225.765 C464.769,222.150 462.622,217.805 461.455,216.117 ZM412.219,319.405 C412.219,312.175 412.219,242.466 412.219,233.568 C412.219,224.670 423.897,224.948 423.897,233.568 C423.897,242.188 423.897,310.229 423.897,319.405 C423.897,328.582 412.219,326.635 412.219,319.405 ZM316.849,307.700 C316.849,313.778 309.224,315.318 301.278,315.503 C301.278,271.935 301.278,250.247 301.278,204.306 C317.207,204.548 316.849,215.804 316.849,217.961 C316.849,220.118 316.849,301.621 316.849,307.700 Z"/><path class="cls-3" d="M436.999,75.012 C536.959,174.972 536.959,337.039 436.999,436.999 C337.039,536.959 174.972,536.959 75.012,436.999 "/></svg>