<?xml version="1.0" ?><!DOCTYPE svg  PUBLIC '-//W3C//DTD SVG 1.1//EN'  'http://www.w3.org/Graphics/SVG/1.1/DTD/svg11.dtd'><svg enable-background="new 0 0 100 100" height="100px" id="Layer_1" version="1.1" viewBox="0 0 100 100" width="100px" xml:space="preserve" xmlns="http://www.w3.org/2000/svg" xmlns:xlink="http://www.w3.org/1999/xlink"><path d="M50,3.84C24.506,3.84,3.84,24.506,3.84,50S24.506,96.16,50,96.16S96.16,75.494,96.16,50S75.494,3.84,50,3.84  z M37.744,72.168l-9.497-0.049c-0.009-0.741,0.21-3.558,0.146-4.478c-0.073-1.025-0.101-5.057-0.115-6.059  c-0.01-1-0.103-5.467-0.078-6.713c0.031-1.667-0.2-3.334-0.2-5c0-2.417,0-5.208,0-7.404c0,0,6.877-0.86,9.377,0l0.113,1.521  c-0.002,0.84,0.03,4.196,0.063,5.015c0.076,1.886,0.253,4.086,0.177,5.99c-0.072,1.9-0.019,4.524,0.03,6.386  C37.871,65.474,37.807,68.305,37.744,72.168z M29.111,36.629c-1.414-1.021-2.026-3.269-1.544-5.054  c0.876-3.229,4.864-4.908,7.8-3.589C42.509,31.197,36.159,41.72,29.111,36.629z M72.496,72.466l-9.208-0.099  c0-5.647,0.099-15.397-0.099-17.289c-0.194-1.892-0.919-3.7-1.459-4.22c-0.9-0.87-2.502-1.061-3.688-1.065  c-3.205-0.009-5.198,2.425-5.348,4.307c-0.148,1.882-0.158,11.701-0.049,13.282C52.721,68.454,52.694,72,52.694,72  c-2.838,0-5.38,0-8.218,0h-0.892c-0.009-3,0.218-8.049,0.049-12.192c-0.101-2.538-0.271-5.14-0.244-7.659  c0.012-1.349-0.034-2.639,0-3.986c0.029-1.34,0.098-5.823,0.098-5.823c1.784,0.026,3.346-0.043,4.701,0.015  c1.569,0.065,2.806-0.008,4.271,0.097c0.137,1.146-0.003,3.132,0.137,4.071c0,0,3.54-4.048,5.844-4.352  c2.009-0.267,3.634-0.81,5.668-0.101c2.491,0.868,4.491,1.762,6.331,3.76c0.645,0.7,1.319,1.542,1.463,2.494  c0.233,1.526,0.233,1.526,0.297,2.257c0.083,0.928,0.394,5.807,0.396,7.314C72.599,59.617,71.937,71.256,72.496,72.466z" fill="#6599C8"/></svg>